<?xml version="1.0" encoding="UTF-8"?>
<svg xmlns="http://www.w3.org/2000/svg" version="1.1" width="1966px" height="2273px" style="shape-rendering:geometricPrecision; text-rendering:geometricPrecision; image-rendering:optimizeQuality; fill-rule:evenodd; clip-rule:evenodd" xmlns:xlink="http://www.w3.org/1999/xlink">
<g><path style="opacity:0.997" fill="#fe0000" d="M 1512.5,666.5 C 1381.31,732.595 1250.31,798.928 1119.5,865.5C 933.5,958.833 747.5,1052.17 561.5,1145.5C 429.212,1211.64 297.212,1278.31 165.5,1345.5C 164.292,1346.23 162.959,1346.57 161.5,1346.5C 161.168,1199.6 161.501,1052.76 162.5,906C 713.833,628.333 1265.17,350.667 1816.5,73C 1864.8,48.8489 1913.14,24.6822 1961.5,0.5C 1962.67,147.166 1962.83,293.832 1962,440.5C 1812.5,516.499 1662.67,591.832 1512.5,666.5 Z"/></g>
<g><path style="opacity:1" fill="#c00000" d="M 1512.5,666.5 C 1512.5,800.167 1512.5,933.833 1512.5,1067.5C 1382.29,1133.85 1251.79,1199.85 1121,1265.5C 1120.5,1411.83 1120.33,1558.17 1120.5,1704.5C 1251.16,1639.17 1381.82,1573.84 1512.5,1508.5C 1512.83,1640.84 1512.5,1773.17 1511.5,1905.5C 1380.92,1839.96 1250.42,1774.29 1120,1708.5C 1119.5,1427.5 1119.33,1146.5 1119.5,865.5C 1250.31,798.928 1381.31,732.595 1512.5,666.5 Z"/></g>
<g><path style="opacity:0.998" fill="#fe0000" d="M 1512.5,1508.5 C 1381.82,1573.84 1251.16,1639.17 1120.5,1704.5C 1120.33,1558.17 1120.5,1411.83 1121,1265.5C 1251.79,1199.85 1382.29,1133.85 1512.5,1067.5C 1659.63,993.769 1806.63,919.769 1953.5,845.5C 1954.18,988.837 1954.85,1132.17 1955.5,1275.5C 1955.48,1279.08 1955.15,1282.58 1954.5,1286C 1807.3,1360.44 1659.96,1434.6 1512.5,1508.5 Z"/></g>
<g><path style="opacity:0.998" fill="#bf0000" d="M 561.5,1145.5 C 670.851,1225.51 780.518,1305.17 890.5,1384.5C 891.653,1385.69 891.653,1386.69 890.5,1387.5C 761.063,1453.72 631.73,1520.22 502.5,1587C 499.138,1586.16 495.805,1585 492.5,1583.5C 384.04,1503.44 275.04,1424.1 165.5,1345.5C 297.212,1278.31 429.212,1211.64 561.5,1145.5 Z"/></g>
<g><path style="opacity:0.997" fill="#fe0000" d="M 890.5,1387.5 C 890.833,1533.17 890.5,1678.83 889.5,1824.5C 593.227,1973.8 296.893,2122.8 0.5,2271.5C 0.832166,2223 0.498833,2174.66 -0.5,2126.5C -0.5,2028.17 -0.5,1929.83 -0.5,1831.5C 163.962,1749.1 328.295,1666.44 492.5,1583.5C 495.805,1585 499.138,1586.16 502.5,1587C 631.73,1520.22 761.063,1453.72 890.5,1387.5 Z"/></g>
</svg>
